<svg xmlns="http://www.w3.org/2000/svg" width="900" height="900" viewBox="0 0 900 900">
  <defs>
    <radialGradient id="g" cx="30%" cy="20%" r="80%">
      <stop offset="0%" stop-color="#ff6b6b"/>
      <stop offset="45%" stop-color="#e11d48"/>
      <stop offset="100%" stop-color="#7f1d1d"/>
    </radialGradient>
    <filter id="shadow" x="-20%" y="-20%" width="140%" height="140%">
      <feDropShadow dx="0" dy="18" stdDeviation="22" flood-color="#000" flood-opacity="0.55"/>
    </filter>
  </defs>
  <rect width="900" height="900" fill="#050607"/>
  <g filter="url(#shadow)">
    <path d="M620 190
             C700 200 760 260 770 330
             C785 430 720 530 645 600
             C610 633 585 660 570 695
             C548 748 520 760 485 750
             C450 740 445 712 455 675
             C470 620 505 585 540 545
             C585 495 625 430 615 360
             C608 312 575 270 530 255
             C470 235 435 275 420 320
             C400 380 360 420 305 440
             C260 456 225 452 200 435
             C165 413 162 365 195 340
             C245 300 330 280 380 235
             C455 167 540 175 620 190 Z"
          fill="url(#g)" stroke="#ff9aa7" stroke-opacity="0.25" stroke-width="10" />
    <path d="M520 320
             C575 300 625 335 633 390
             C645 470 590 535 535 585
             C500 617 475 645 465 675
             C455 708 440 712 418 705
             C395 698 395 682 405 655
             C422 610 450 585 480 555
             C520 515 560 460 555 405
             C552 372 535 340 520 320 Z"
          fill="rgba(0,0,0,.22)"/>
    <path d="M410 345
             C430 280 500 255 560 285
             C610 310 645 365 650 420
             C657 500 612 565 560 618
             C540 638 520 660 505 690
             C490 720 470 725 445 718
             C422 712 420 695 432 668
             C452 625 478 600 505 570
             C548 525 585 470 580 420
             C575 372 545 335 500 325
             C460 317 430 335 410 345 Z"
          fill="#050607" opacity="0.95"/>
  </g>
  <g font-family="ui-sans-serif, system-ui, -apple-system, Segoe UI, Roboto, Helvetica, Arial" text-anchor="middle">
    <text x="450" y="830" font-size="92" font-weight="800" fill="#ffffff" letter-spacing="2">$CLAW</text>
    <text x="450" y="875" font-size="28" font-weight="600" fill="rgba(255,255,255,.60)">Market just grew claws.</text>
  </g>
</svg>
