<svg xmlns="http://www.w3.org/2000/svg" width="900" height="900" viewBox="0 0 900 900">
  <defs>
    <radialGradient id="g" cx="30%" cy="20%" r="80%">
      <stop offset="0%" stop-color="#ff7a7a"/>
      <stop offset="45%" stop-color="#e11d48"/>
      <stop offset="100%" stop-color="#7f1d1d"/>
    </radialGradient>
    <filter id="shadow" x="-30%" y="-30%" width="160%" height="160%">
      <feDropShadow dx="0" dy="22" stdDeviation="26" flood-color="#000" flood-opacity="0.55"/>
    </filter>
  </defs>
  <rect width="900" height="900" fill="#050607"/>
  <g filter="url(#shadow)">
    <!-- Outer claw -->
    <path d="M615 170
             C716 182 792 262 804 356
             C821 497 724 607 646 678
             C607 714 582 745 570 782
             C551 840 512 853 471 839
             C427 824 422 783 441 733
             C464 673 503 633 548 585
             C607 522 651 455 640 375
             C632 318 592 266 534 243
             C464 215 418 269 404 329
             C385 412 332 457 266 476
             C217 490 178 480 151 456
             C111 420 114 359 160 325
             C222 280 329 269 391 214
             C469 145 549 155 615 170 Z"
          fill="url(#g)" stroke="rgba(255,255,255,.10)" stroke-width="8"/>
    <!-- Inner shade -->
    <path d="M520 320
             C586 300 646 347 654 418
             C666 520 600 593 543 642
             C505 674 480 707 471 734
             C458 774 436 780 411 771
             C386 761 385 738 401 704
             C422 657 453 622 488 586
             C539 534 583 475 578 418
             C575 382 551 349 520 320 Z"
          fill="rgba(0,0,0,.22)"/>
    <!-- Pinch void -->
    <path d="M400 356
             C420 275 502 244 569 280
             C626 311 666 374 671 445
             C678 541 620 616 559 676
             C538 697 520 718 507 746
             C491 780 466 788 438 778
             C409 767 406 744 423 711
             C446 667 478 633 511 597
             C561 545 603 492 597 444
             C591 392 556 351 505 348
             C467 346 430 357 400 356 Z"
          fill="#050607" opacity="0.96"/>
  </g>
</svg>
